<svg xmlns="http://www.w3.org/2000/svg" viewBox="0 0 750 500"><g id="freepik--background-simple--inject-42"><path d="M497.62,44.8,142.14,120.07a59.57,59.57,0,0,0-41.56,83.61L212.63,442a59.55,59.55,0,0,0,74.28,30.61L581.76,365.22a59.55,59.55,0,0,0,37.4-70.37L567.75,88.65A59.56,59.56,0,0,0,497.62,44.8Z" style="fill:#FB2C36"></path><path d="M497.62,44.8,142.14,120.07a59.57,59.57,0,0,0-41.56,83.61L212.63,442a59.55,59.55,0,0,0,74.28,30.61L581.76,365.22a59.55,59.55,0,0,0,37.4-70.37L567.75,88.65A59.56,59.56,0,0,0,497.62,44.8Z" style="fill:#fff;opacity:0.7000000000000001"></path></g><g id="freepik--Chronometer--inject-42"><rect x="242.6" y="101.77" width="21.62" height="33.51" transform="translate(-19.19 181.44) rotate(-38.06)" style="fill:#263238;stroke:#263238;stroke-linejoin:round"></rect><rect x="224.7" y="93.45" width="36.76" height="23.78" transform="translate(-13.25 172.27) rotate(-38.06)" style="fill:#FB2C36;stroke:#263238;stroke-linejoin:round"></rect><line x1="227.53" y1="103.32" x2="238.28" y2="117.05" style="fill:none;stroke:#263238;stroke-linejoin:round"></line><line x1="237.33" y1="95.65" x2="248.08" y2="109.37" style="fill:none;stroke:#263238;stroke-linejoin:round"></line><line x1="234.66" y1="103.01" x2="245.41" y2="116.73" style="fill:none;stroke:#263238;stroke-linejoin:round"></line><rect x="480.49" y="101.77" width="21.62" height="33.51" transform="translate(805.04 514.76) rotate(-141.94)" style="fill:#263238;stroke:#263238;stroke-linejoin:round"></rect><rect x="483.25" y="93.45" width="36.76" height="23.78" transform="translate(831.64 497.54) rotate(-141.94)" style="fill:#FB2C36;stroke:#263238;stroke-linejoin:round"></rect><line x1="517.18" y1="103.32" x2="506.43" y2="117.05" style="fill:none;stroke:#263238;stroke-linejoin:round"></line><line x1="507.38" y1="95.65" x2="496.63" y2="109.37" style="fill:none;stroke:#263238;stroke-linejoin:round"></line><line x1="510.05" y1="103.01" x2="499.3" y2="116.73" style="fill:none;stroke:#263238;stroke-linejoin:round"></line><rect x="353.52" y="52.33" width="35.06" height="35.11" style="fill:#263238;stroke:#263238;stroke-linejoin:round"></rect><rect x="345.68" y="32.19" width="50.74" height="35.11" style="fill:#FB2C36;stroke:#263238;stroke-linejoin:round"></rect><line x1="350.24" y1="32.07" x2="350.24" y2="61.33" style="fill:none;stroke:#263238;stroke-linejoin:round"></line><line x1="354.42" y1="62.64" x2="354.42" y2="46.96" style="fill:none;stroke:#263238;stroke-linejoin:round"></line><line x1="358.86" y1="32.86" x2="358.86" y2="55.06" style="fill:none;stroke:#263238;stroke-linejoin:round"></line><line x1="363.3" y1="43.57" x2="363.3" y2="63.95" style="fill:none;stroke:#263238;stroke-linejoin:round"></line><line x1="370.1" y1="33.12" x2="370.1" y2="56.11" style="fill:none;stroke:#263238;stroke-linejoin:round"></line><circle cx="371.05" cy="264.7" r="183.41" transform="translate(-78.5 339.9) rotate(-45)" style="fill:#263238;stroke:#263238;stroke-linejoin:round"></circle><circle cx="371.05" cy="264.7" r="161.91" transform="translate(-78.5 339.9) rotate(-45)" style="fill:#fff;stroke:#263238;stroke-linejoin:round"></circle><circle cx="371.05" cy="264.7" r="149.22" transform="translate(-78.5 339.9) rotate(-45)" style="fill:#fff;stroke:#263238;stroke-linejoin:round"></circle><line x1="371.05" y1="115.48" x2="371.05" y2="135.71" style="fill:none;stroke:#263238;stroke-linejoin:round"></line><line x1="371.05" y1="393.54" x2="371.05" y2="413.77" style="fill:none;stroke:#263238;stroke-linejoin:round"></line><line x1="520.19" y1="264.63" x2="499.96" y2="264.63" style="fill:none;stroke:#263238;stroke-linejoin:round"></line><line x1="242.13" y1="264.63" x2="221.9" y2="264.63" style="fill:none;stroke:#263238;stroke-linejoin:round"></line><line x1="476.51" y1="159.17" x2="462.2" y2="173.47" style="fill:none;stroke:#263238;stroke-linejoin:round"></line><line x1="279.89" y1="355.78" x2="265.59" y2="370.09" style="fill:none;stroke:#263238;stroke-linejoin:round"></line><line x1="265.59" y1="159.17" x2="279.89" y2="173.47" style="fill:none;stroke:#263238;stroke-linejoin:round"></line><line x1="462.2" y1="355.78" x2="476.51" y2="370.09" style="fill:none;stroke:#263238;stroke-linejoin:round"></line><polygon points="407.86 250.42 410.19 259.31 257.69 296.09 256.99 293.42 407.86 250.42" style="fill:#263238;stroke:#263238;stroke-linejoin:round"></polygon><path d="M376.9,264.7a5.85,5.85,0,1,0-5.85,5.85A5.85,5.85,0,0,0,376.9,264.7Z" style="fill:#fff;stroke:#263238;stroke-linejoin:round"></path></g></svg>
