<svg xmlns="http://www.w3.org/2000/svg" version="1.1" xmlns:xlink="http://www.w3.org/1999/xlink"
    width="512" height="512" x="0" y="0" viewBox="0 0 512 512"
    style="enable-background:new 0 0 512 512" xml:space="preserve" class=""><g><linearGradient id="a" x1="73.636" x2="441.775" y1="438.365" y2="70.226" gradientUnits="userSpaceOnUse"><stop stop-opacity="1" stop-color="#da4d35" offset="0"></stop><stop stop-opacity="1" stop-color="#5110c9" offset="1"></stop></linearGradient><path fill="url(#a)" fill-rule="evenodd" d="M395.6 226.45c8.97 22.52 13.91 47.08 13.91 72.79 0 108.66-88.09 196.75-196.75 196.75S16.01 407.9 16.01 299.24s88.09-196.75 196.75-196.75c31.81 0 61.86 7.56 88.45 20.97l-19.86 34.39c-20.73-10.08-44-15.73-68.6-15.73-86.77 0-157.12 70.35-157.12 157.12s70.35 157.12 157.12 157.12 157.12-70.35 157.12-157.12c0-26.27-6.45-51.03-17.85-72.79zm87.53-10H281.29c-9.91 0-16.06-10.66-11.11-19.24L371.1 22.41c4.93-8.53 17.29-8.53 22.22 0l100.92 174.8c4.96 8.58-1.2 19.24-11.11 19.24zm-90.72-36.53c0-5.63-4.57-10.2-10.2-10.2s-10.2 4.57-10.2 10.2 4.57 10.2 10.2 10.2c5.64 0 10.2-4.56 10.2-10.2zm-10.2-111.96c-8.69 0-14.4 7.78-13.63 16.35l5.55 61.7c.4 4.44 3.62 8.08 8.08 8.08s7.68-3.64 8.08-8.08l5.55-61.7c.78-8.57-4.94-16.35-13.63-16.35zM261.52 192.21c-8.79 15.23 2.18 34.24 19.77 34.24h59.34c12.25 21.47 19.24 46.31 19.24 72.79 0 81.25-65.87 147.12-147.12 147.12S65.63 380.49 65.63 299.24s65.87-147.12 147.12-147.12c22.77 0 44.34 5.18 63.58 14.41zM93.62 299.24c0-2.76-2.24-5-5-5h-8.06c-2.76 0-5 2.24-5 5s2.24 5 5 5h8.06c2.76 0 5-2.24 5-5zm238.28 0c0 2.76 2.24 5 5 5h8.06c2.76 0 5-2.24 5-5s-2.24-5-5-5h-8.06c-2.76 0-5 2.24-5 5zM297 390.56l5.7 5.7c1.95 1.95 5.12 1.95 7.07 0s1.95-5.12 0-7.07l-5.7-5.7c-1.95-1.95-5.12-1.95-7.07 0s-1.95 5.11 0 7.07zM207.76 175.1c0 2.76 2.24 5 5 5s5-2.24 5-5v-8.06c0-2.76-2.24-5-5-5s-5 2.24-5 5zm-79.24 208.39a5.003 5.003 0 0 0-7.07 0l-5.7 5.7c-1.95 1.95-1.95 5.12 0 7.07s5.12 1.95 7.07 0l5.7-5.7a5.003 5.003 0 0 0 0-7.07zm0-175.56-5.7-5.7c-1.95-1.95-5.12-1.95-7.07 0s-1.95 5.12 0 7.07l5.7 5.7c1.95 1.95 5.12 1.95 7.07 0s1.95-5.12 0-7.07zm89.24 215.45c0-2.76-2.24-5-5-5s-5 2.24-5 5v8.06c0 2.76 2.24 5 5 5s5-2.24 5-5zm8.86-117.35a15.3 15.3 0 0 0 1.57-6.79c0-6.77-4.36-12.53-10.43-14.61V195.3c0-2.76-2.24-5-5-5s-5 2.24-5 5v89.33c-6.07 2.08-10.43 7.83-10.43 14.61 0 8.52 6.91 15.43 15.43 15.43 2.44 0 4.74-.57 6.79-1.57l47.12 47.12c1.95 1.95 5.12 1.95 7.07 0s1.95-5.12 0-7.07z" clip-rule="evenodd" opacity="1" data-original="url(#a)" class=""></path></g></svg>